<svg xmlns="http://www.w3.org/2000/svg" width="640" height="400" viewBox="0 0 640 400" role="img" aria-label="Wireframe of the CRED nonprofit site with hero, cards and applicant intake form">
  <rect x="0" y="0" width="640" height="400" fill="#1C1832"/>

  <g stroke="#EDEBF5" stroke-opacity="0.08" stroke-width="1">
    <line x1="34" y1="22" x2="606" y2="22"/>
    <line x1="34" y1="300" x2="606" y2="300"/>
    <line x1="34" y1="22" x2="34" y2="300"/>
    <line x1="421" y1="40" x2="421" y2="290"/>
    <line x1="606" y1="22" x2="606" y2="300"/>
  </g>

  <rect x="34" y="32" width="376" height="18" fill="#EDEBF5" fill-opacity="0.06" stroke="#EDEBF5" stroke-opacity="0.14" stroke-width="1"/>
  <g fill="#EDEBF5" fill-opacity="0.22">
    <circle cx="46" cy="41" r="2.5"/>
    <circle cx="57" cy="41" r="2.5"/>
    <circle cx="68" cy="41" r="2.5"/>
  </g>
  <rect x="88" y="36" width="146" height="10" fill="#EDEBF5" fill-opacity="0.08"/>

  <rect x="34" y="58" width="376" height="112" fill="#004377"/>
  <rect x="54" y="78" width="214" height="9" fill="#EDEBF5" fill-opacity="0.30"/>
  <rect x="54" y="95" width="168" height="7" fill="#EDEBF5" fill-opacity="0.18"/>
  <rect x="54" y="108" width="132" height="7" fill="#EDEBF5" fill-opacity="0.12"/>
  <rect x="54" y="128" width="96" height="22" rx="11" fill="#ffb341"/>

  <g stroke="#EDEBF5" stroke-opacity="0.14" stroke-width="1">
    <rect x="34" y="186" width="118" height="88" fill="#EDEBF5" fill-opacity="0.05"/>
    <rect x="163" y="186" width="118" height="88" fill="#EDEBF5" fill-opacity="0.05"/>
    <rect x="292" y="186" width="118" height="88" fill="#EDEBF5" fill-opacity="0.05"/>
  </g>
  <g fill="#004377">
    <rect x="34" y="186" width="118" height="30"/>
    <rect x="163" y="186" width="118" height="30"/>
    <rect x="292" y="186" width="118" height="30"/>
  </g>
  <rect x="163" y="216" width="38" height="3" fill="#ffb341"/>
  <g fill="#EDEBF5">
    <rect x="46" y="228" width="78" height="6" fill-opacity="0.20"/>
    <rect x="46" y="241" width="60" height="5" fill-opacity="0.12"/>
    <rect x="46" y="252" width="70" height="5" fill-opacity="0.12"/>
    <rect x="175" y="228" width="68" height="6" fill-opacity="0.20"/>
    <rect x="175" y="241" width="84" height="5" fill-opacity="0.12"/>
    <rect x="175" y="252" width="52" height="5" fill-opacity="0.12"/>
    <rect x="304" y="228" width="86" height="6" fill-opacity="0.20"/>
    <rect x="304" y="241" width="56" height="5" fill-opacity="0.12"/>
    <rect x="304" y="252" width="74" height="5" fill-opacity="0.12"/>
  </g>

  <rect x="432" y="58" width="174" height="216" fill="#EDEBF5" fill-opacity="0.04" stroke="#EDEBF5" stroke-opacity="0.14" stroke-width="1"/>
  <rect x="448" y="74" width="68" height="7" fill="#ffb341"/>
  <rect x="448" y="88" width="110" height="5" fill="#EDEBF5" fill-opacity="0.12"/>
  <g stroke="#EDEBF5" stroke-opacity="0.20" stroke-width="1" fill="#EDEBF5" fill-opacity="0.05">
    <rect x="448" y="104" width="142" height="24" rx="2"/>
    <rect x="448" y="138" width="142" height="24" rx="2"/>
    <rect x="448" y="172" width="142" height="24" rx="2"/>
    <rect x="448" y="206" width="142" height="24" rx="2"/>
  </g>
  <g fill="#EDEBF5" fill-opacity="0.16">
    <rect x="458" y="113" width="58" height="6"/>
    <rect x="458" y="147" width="82" height="6"/>
    <rect x="458" y="181" width="44" height="6"/>
    <rect x="458" y="215" width="96" height="6"/>
  </g>
  <rect x="448" y="240" width="92" height="24" fill="#004377"/>
  <rect x="464" y="249" width="46" height="6" fill="#ffb341"/>

  <text x="34" y="366" font-family="IBM Plex Mono, ui-monospace, monospace" font-size="11" letter-spacing="1.6" fill="#9A94B8">INTAKE + ADMIN</text>
</svg>
